<?xml version="1.0" standalone="no"?>
<!DOCTYPE svg PUBLIC "-//W3C//DTD SVG 20010904//EN"
 "http://www.w3.org/TR/2001/REC-SVG-20010904/DTD/svg10.dtd">
<svg version="1.0" xmlns="http://www.w3.org/2000/svg"
 width="232.000000pt" height="202.000000pt" viewBox="0 0 232.000000 202.000000"
 preserveAspectRatio="xMidYMid meet">
<metadata>
Created by potrace 1.16, written by Peter Selinger 2001-2019
</metadata>
<g transform="translate(0.000000,202.000000) scale(0.100000,-0.100000)"
fill="#000000" stroke="none">
<path d="M897 1613 c-126 -120 -499 -478 -619 -594 -48 -47 -88 -90 -88 -96 0
-12 117 -118 130 -118 4 0 48 38 97 85 219 209 493 470 546 519 l57 54 68 -64
c37 -35 127 -121 200 -191 73 -71 140 -128 149 -128 8 0 43 27 76 60 l62 61
-107 102 c-375 359 -428 407 -448 407 -13 0 -60 -37 -123 -97z"/>
<path d="M2060 1503 c-22 -8 -72 -55 -745 -688 -185 -175 -243 -225 -258 -225
-7 1 -22 6 -33 13 -17 9 -168 139 -258 222 -47 44 -81 65 -102 65 -68 0 -120
-70 -92 -123 12 -23 194 -221 381 -414 98 -102 153 -108 229 -25 199 220 250
276 302 333 34 36 97 105 141 155 44 49 103 114 131 144 27 30 104 116 169
190 66 74 138 155 160 178 86 93 94 141 29 168 -18 8 -35 14 -36 13 -2 0 -10
-3 -18 -6z"/>
</g>
</svg>
